#!OML:ASF H:\MichaelJackson\Top Level 1\Subject 1\Session 1\male.ASF
:FULLY-SPECIFIED
:DEGREES
725
root 26.4663 16.5704 -12.2313 -172.393 -2.21267 -180.085
lowerback 4.08519 -1.2635 -1.34316
upperback 0.861733 -1.76025 1.39935
thorax -1.32012 -0.891178 2.27988
lowerneck -8.02496 -1.99992 0.53145
upperneck 11.6371 -2.62917 0.176024
head 4.80424 -1.18685 -0.196187
rclavicle -1.47598e-014 9.93923e-016
rhumerus -24.4257 13.2958 -89.7625
rradius 65.4336
rwrist 38.482
rhand -53.2365 -34.1015
rfingers 7.12502
rthumb -25.6923 -422.388
lclavicle -1.47598e-014 9.93923e-016
lhumerus -35.0601 -19.6586 93.1969
lradius 88.2047
lwrist -11.0403
lhand -25.1925 22.1602
lfingers 7.12502
lthumb 1.32565 52.1358
rfemur -49.9845 -8.1447 21.3857
rtibia 71.4549
rfoot 15.906 9.87355
rtoes 7.31664
lfemur -29.4604 5.90881 -22.8928
ltibia 39.8477
lfoot -18.4754 -5.569
ltoes 32.5818
726
root 26.4672 16.5749 -12.1445 -172.485 -2.3005 -180.004
lowerback 4.03949 -1.28529 -1.29988
upperback 0.837059 -1.78622 1.42843
thorax -1.31901 -0.903926 2.28589
lowerneck -8.11777 -1.97809 0.479816
upperneck 11.8176 -2.58779 0.166698
head 4.87616 -1.16571 -0.189959
rclavicle 2.43511e-015 2.42517e-014
rhumerus -25.8794 12.8853 -90.1869
rradius 65.0424
rwrist 38.5399
rhand -53.2528 -33.6921
rfingers 7.12502
rthumb -25.7079 -421.976
lclavicle 2.43511e-015 2.42517e-014
lhumerus -33.9991 -20.0092 92.6892
lradius 90.2111
lwrist -11.5698
lhand -25.7459 21.962
lfingers 7.12502
lthumb 0.791154 51.9403
rfemur -49.7888 -8.15208 21.3354
rtibia 72.4865
rfoot 16.7697 9.99309
rtoes 7.99959
lfemur -29.6413 5.79394 -22.8157
ltibia 39.6965
lfoot -18.0866 -5.64659
ltoes 32.9661
727
root 26.4694 16.5797 -12.0587 -172.596 -2.42467 -179.91
lowerback 4.02263 -1.31821 -1.24836
upperback 0.811308 -1.82717 1.46585
thorax -1.3344 -0.924182 2.2974
lowerneck -8.21358 -1.95416 0.427033
upperneck 11.9875 -2.54327 0.154457
head 4.94534 -1.14364 -0.18414
rclavicle -6.41081e-015 1.59028e-015
rhumerus -27.3204 12.4809 -90.5625
rradius 64.5997
rwrist 38.5911
rhand -53.2636 -33.3272
rfingers 7.12502
rthumb -25.7182 -421.61
lclavicle -6.41081e-015 1.59028e-015
lhumerus -32.967 -20.3359 92.1624
lradius 92.2326
lwrist -12.076
lhand -26.2729 21.794
lfingers 7.12502
lthumb 0.282206 51.7735
rfemur -49.4874 -8.16067 21.2865
rtibia 73.4744
rfoot 17.6527 10.0457
rtoes 8.607
lfemur -29.8023 5.65538 -22.7158
ltibia 39.5278
lfoot -17.6145 -5.73654
ltoes 33.349
728
root 26.4723 16.5849 -11.9735 -172.717 -2.59311 -179.8
lowerback 4.01314 -1.36691 -1.18397
upperback 0.794415 -1.88926 1.51449
thorax -1.34384 -0.955481 2.31431
lowerneck -8.30644 -1.92612 0.374722
upperneck 12.1151 -2.49434 0.139419
head 5.001 -1.12073 -0.178666
rclavicle -6.85807e-015 9.14409e-015
rhumerus -28.7283 12.103 -90.892
rradius 64.1069
rwrist 38.5525
rhand -53.2977 -33.0415
rfingers 7.12502
rthumb -25.7509 -421.319
lclavicle -6.85807e-015 9.14409e-015
lhumerus -31.9361 -20.64 91.606
lradius 94.2651
lwrist -12.5456
lhand -26.7702 21.6591
lfingers 7.12502
lthumb -0.198152 51.6387
rfemur -49.0843 -8.17992 21.2445
rtibia 74.4048
rfoot 18.5773 10.0384
rtoes 9.12022
lfemur -29.9544 5.48435 -22.5925
ltibia 39.3462
lfoot -17.07 -5.83117
ltoes 33.6977
729
root 26.4762 16.5909 -11.8892 -172.843 -2.78022 -179.658
lowerback 4.0063 -1.41834 -1.09201
upperback 0.780442 -1.95427 1.57224
thorax -1.35227 -0.988602 2.32529
lowerneck -8.37601 -1.90034 0.32903
upperneck 12.1841 -2.45134 0.12797
head 5.03456 -1.10152 -0.172973
rclavicle 2.6339e-015 1.03368e-014
rhumerus -30.1158 11.7377 -91.1845
rradius 63.5757
rwrist 38.381
rhand -53.3594 -32.8533
rfingers 7.12502
rthumb -25.81 -421.122
lclavicle 2.6339e-015 1.03368e-014
lhumerus -30.9099 -20.9407 91.0228
lradius 96.2991
lwrist -12.9752
lhand -27.2715 21.5072
lfingers 7.12502
lthumb -0.682332 51.4859
rfemur -48.584 -8.18411 21.2287
rtibia 75.2597
rfoot 19.5689 9.97501
rtoes 9.51975
lfemur -30.1002 5.28951 -22.4258
ltibia 39.159
lfoot -16.4758 -5.91667
ltoes 33.9706
730
root 26.4807 16.5967 -11.8056 -172.946 -2.98122 -179.491
lowerback 3.97722 -1.47121 -0.972052
upperback 0.757157 -2.01972 1.63201
thorax -1.35875 -1.02195 2.32213
lowerneck -8.41049 -1.87785 0.294285
upperneck 12.1975 -2.4169 0.12839
head 5.04502 -1.08626 -0.1653
rclavicle -1.49089e-016 1.88845e-014
rhumerus -31.4942 11.3673 -91.4482
rradius 63.0235
rwrist 38.0805
rhand -53.4214 -32.7414
rfingers 7.12502
rthumb -25.8694 -421.002
lclavicle -1.49089e-016 1.88845e-014
lhumerus -29.8842 -21.2425 90.4059
lradius 98.319
lwrist -13.3837
lhand -27.7811 21.3239
lfingers 7.12502
lthumb -1.17449 51.3004
rfemur -48.0158 -8.17574 21.2406
rtibia 76.0279
rfoot 20.5975 9.89849
rtoes 9.67999
lfemur -30.2719 5.06225 -22.225
ltibia 38.9704
lfoot -15.8597 -5.98714
ltoes 34.2355
731
root 26.4861 16.6025 -11.7227 -173.031 -3.17719 -179.284
lowerback 3.91625 -1.51719 -0.820468
upperback 0.737246 -2.07505 1.69817
thorax -1.3454 -1.05075 2.30618
lowerneck -8.4227 -1.86097 0.272405
upperneck 12.1538 -2.39558 0.144611
head 5.03407 -1.07699 -0.155221
rclavicle 8.15017e-015 8.54774e-015
rhumerus -32.8469 10.9858 -91.6755
rradius 62.4664
rwrist 37.6576
rhand -53.439 -32.6545
rfingers 7.12502
rthumb -25.8862 -420.912
lclavicle 8.15017e-015 8.54774e-015
lhumerus -28.8341 -21.5431 89.7525
lradius 100.308
lwrist -13.7862
lhand -28.338 21.0878
lfingers 7.12502
lthumb -1.71232 51.0606
rfemur -47.3767 -8.13276 21.2975
rtibia 76.6963
rfoot 21.6466 9.82862
rtoes 9.68934
lfemur -30.4603 4.81752 -21.9724
ltibia 38.7788
lfoot -15.2504 -6.03529
ltoes 34.475
732
root 26.4923 16.6086 -11.6407 -173.103 -3.36774 -179.052
lowerback 3.82373 -1.55604 -0.652084
upperback 0.722189 -2.12079 1.76546
thorax -1.31056 -1.07516 2.28029
lowerneck -8.42511 -1.85136 0.261016
upperneck 12.075 -2.38952 0.18278
head 5.01073 -1.07401 -0.140836
rclavicle 9.14409e-015 -6.36111e-015
rhumerus -34.1767 10.5735 -91.8628
rradius 61.9242
rwrist 37.1577
rhand -53.3494 -32.5748
rfingers 7.12502
rthumb -25.8004 -420.845
lclavicle 9.14409e-015 -6.36111e-015
lhumerus -27.7505 -21.8223 89.0574
lradius 102.238
lwrist -14.2385
lhand -28.9405 20.7565
lfingers 7.12502
lthumb -2.29422 50.7239
rfemur -46.6611 -8.06358 21.3854
rtibia 77.2565
rfoot 22.6699 9.81255
rtoes 9.53601
lfemur -30.6559 4.55565 -21.6827
ltibia 38.5823
lfoot -14.6651 -6.06259
ltoes 34.6909
733
root 26.4992 16.6152 -11.5597 -173.158 -3.54408 -178.81
lowerback 3.70357 -1.58251 -0.476498
upperback 0.703681 -2.1501 1.8265
thorax -1.26515 -1.09133 2.24223
lowerneck -8.41936 -1.8518 0.257842
upperneck 11.9883 -2.40101 0.24384
head 4.98381 -1.0778 -0.121765
rclavicle -8.94531e-016 1.98785e-014
rhumerus -35.4977 10.1081 -92.0103
rradius 61.4091
rwrist 36.6022
rhand -53.1239 -32.4759
rfingers 7.12502
rthumb -25.5844 -420.778
lclavicle -8.94531e-016 1.98785e-014
lhumerus -26.6681 -22.0713 88.347
lradius 104.096
lwrist -14.7685
lhand -29.6351 20.2917
lfingers 7.12502
lthumb -2.96505 50.2508
rfemur -45.8771 -7.96091 21.4889
rtibia 77.7003
rfoot 23.6328 9.8655
rtoes 9.34452
lfemur -30.8568 4.2863 -21.3721
ltibia 38.3773
lfoot -14.1025 -6.06659
ltoes 34.842
734
root 26.5067 16.622 -11.4794 -173.201 -3.71044 -178.562
lowerback 3.56236 -1.59862 -0.295024
upperback 0.682957 -2.16597 1.88243
thorax -1.21129 -1.10075 2.1943
lowerneck -8.41389 -1.86188 0.257624
upperneck 11.9087 -2.42771 0.322868
head 4.95934 -1.08752 -0.0986694
rclavicle 1.30701e-014 4.37326e-015
rhumerus -36.8012 9.61307 -92.1149
rradius 60.9153
rwrist 35.9853
rhand -52.7405 -32.3799
rfingers 7.12502
rthumb -25.2172 -420.734
lclavicle 1.30701e-014 4.37326e-015
lhumerus -25.5872 -22.2574 87.6228
lradius 105.859
lwrist -15.454
lhand -30.4288 19.6738
lfingers 7.12502
lthumb -3.73152 49.6208
rfemur -45.0168 -7.82871 21.6063
rtibia 78.0167
rfoot 24.5094 10.0021
rtoes 9.17628
lfemur -31.0608 4.0111 -21.0458
ltibia 38.1613
lfoot -13.5584 -6.04877
ltoes 34.9248
735
root 26.515 16.6287 -11.3998 -173.233 -3.86344 -178.297
lowerback 3.39329 -1.60698 -0.107758
upperback 0.66599 -2.17258 1.94371
thorax -1.13839 -1.10581 2.14715
lowerneck -8.42784 -1.87421 0.258629
upperneck 11.8568 -2.45733 0.4046
head 4.94673 -1.09792 -0.0754575
rclavicle 1.85367e-014 -6.16232e-015
rhumerus -38.0677 9.10805 -92.1725
rradius 60.4373
rwrist 35.3259
rhand -52.1686 -32.3104
rfingers 7.12502
rthumb -24.6691 -420.74
lclavicle 1.85367e-014 -6.16232e-015
lhumerus -24.533 -22.388 86.916
lradius 107.517
lwrist -16.2192
lhand -31.4721 18.8858
lfingers 7.12502
lthumb -4.73903 48.8128
rfemur -44.0769 -7.65751 21.7541
rtibia 78.1909
rfoot 25.2901 10.2049
rtoes 9.11575
lfemur -31.271 3.7508 -20.6953
ltibia 37.9353
lfoot -13.0162 -6.01724
ltoes 34.9404
736
root 26.5243 16.6354 -11.3209 -173.254 -4.00927 -178.03
lowerback 3.2006 -1.61283 0.0737877
upperback 0.647256 -2.1772 2.00753
thorax -1.05385 -1.10986 2.10496
lowerneck -8.45539 -1.88564 0.255852
upperneck 11.8442 -2.48368 0.48378
head 4.94864 -1.10615 -0.0525087
rclavicle -5.71506e-015 2.70347e-014
rhumerus -39.3001 8.62129 -92.1931
rradius 59.9681
rwrist 34.6024
rhand -51.3984 -32.2768
rfingers 7.12502
rthumb -23.9307 -420.806
lclavicle -5.71506e-015 2.70347e-014
lhumerus -23.5368 -22.4546 86.2383
lradius 109.063
lwrist -17.0808
lhand -32.7474 17.9636
lfingers 7.12502
lthumb -5.97034 47.8595
rfemur -43.0568 -7.45415 21.919
rtibia 78.2078
rfoot 25.9749 10.4562
rtoes 9.17097
lfemur -31.4897 3.5119 -20.3403
ltibia 37.7025
lfoot -12.459 -5.97992
ltoes 34.8915
737
root 26.5343 16.6419 -11.2425 -173.271 -4.16071 -177.772
lowerback 3.00209 -1.62376 0.2443
upperback 0.61982 -2.18965 2.07099
thorax -0.974315 -1.11758 2.06887
lowerneck -8.48283 -1.89249 0.260621
upperneck 11.8751 -2.50043 0.541664
head 4.96357 -1.10958 -0.036903
rclavicle -9.91439e-015 1.0138e-014
rhumerus -40.504 8.18176 -92.1931
rradius 59.5027
rwrist 33.7913
rhand -50.4174 -32.3055
rfingers 7.12502
rthumb -22.9897 -420.955
lclavicle -9.91439e-015 1.0138e-014
lhumerus -22.6378 -22.4575 85.6073
lradius 110.502
lwrist -18.026
lhand -34.2635 16.9307
lfingers 7.12502
lthumb -7.43396 46.7801
rfemur -41.9476 -7.23511 22.0935
rtibia 78.0493
rfoot 26.595 10.7303
rtoes 9.44561
lfemur -31.7149 3.29227 -19.9953
ltibia 37.4674
lfoot -11.8694 -5.94731
ltoes 34.802
738
root 26.545 16.6481 -11.1644 -173.287 -4.32589 -177.517
lowerback 2.78645 -1.64496 0.40394
upperback 0.593886 -2.2177 2.1433
thorax -0.882404 -1.13326 2.04782
lowerneck -8.51523 -1.89077 0.267075
upperneck 11.9446 -2.50102 0.571537
head 4.99085 -1.1059 -0.0293537
rclavicle -9.06955e-015 3.39922e-014
rhumerus -41.6585 7.82712 -92.1763
rradius 59.0391
rwrist 32.8569
rhand -49.2184 -32.3554
rfingers 7.12502
rthumb -21.8387 -421.143
lclavicle -9.06955e-015 3.39922e-014
lhumerus -21.8323 -22.3998 85.0318
lradius 111.835
lwrist -19.0039
lhand -35.9909 15.8431
lfingers 7.12502
lthumb -9.10107 45.6267
rfemur -40.7454 -7.00713 22.2879
rtibia 77.6939
rfoot 27.1629 10.9465
rtoes 10.0947
lfemur -31.9509 3.09361 -19.6583
ltibia 37.2361
lfoot -11.2456 -5.92302
ltoes 34.6741
